<svg xmlns="http://www.w3.org/2000/svg" width="16" height="16" fill="currentColor" class="bi bi-bootstrap" viewBox="0 0 16 16">
  <path d="M5.062 12h3.475c1.804 0 2.888-1.079 2.888-2.897 0-1.582-.955-2.618-2.457-2.784l.148-.09c.49-.306.732-.734.732-1.228 0-.69-.522-1.278-1.482-1.278h-2.41v7.225zM6.375 7.16v1.47h1.445c.742 0 1.158-.443 1.158-1.105 0-.625-.42-1.012-1.118-1.012H6.375zm0 2.554v1.51h1.82c.852 0 1.29-.49 1.29-1.22 0-.724-.451-1.195-1.246-1.195H6.375z"/>
  <path d="M0 4a4 4 0 0 1 4-4h8a4 4 0 0 1 4 4v8a4 4 0 0 1-4 4H4a4 4 0 0 1-4-4zm4-3a3 3 0 0 0-3 3v8a3 3 0 0 0 3 3h8a3 3 0 0 0 3-3V4a3 3 0 0 0-3-3z"/>
</svg>